# xmcd
#
# Track frame offsets: 
#        150
#        18078
#        33015
#        50800
#        75420
#        91777
#        107080
#        124243
#        144379
#        161796
#        183832
#        204997
#        218326
#        236207
#        256205
#        274346
#        291485
#        313050
#        335797
#
# Disc length: 4753 seconds
#
# Revision: 0
# Processed by: cddbd v1.5.2PL0 Copyright (c) Steve Scherf et al.
# Submitted via: ExactAudioCopy v1.3
#
DISCID=0f128f13
DTITLE=Various Artist - Akella Presents - vol.194 - Women's Blues  CD
DTITLE=1
DYEAR=2019
DGENRE=Blues
TTITLE0=Get The Cat - It's Not Enough
TTITLE1=Tullie Brae - Seven Bridges
TTITLE2=The Drive Band - Illinois Blues
TTITLE3=The Ori Naftaly Band - Dreamin', Pleadin'. Wonderin'
TTITLE4=Billie Williams - Hell to Pay
TTITLE5=Laurie Morvan - Shake Your Tailfeathers
TTITLE6=King Bee and The Stingers - Lucky One
TTITLE7=Ina Forsman - Miss Mistreated
TTITLE8=Zeebee - Sensibility
TTITLE9=Habaka - I Put a Spell on You
TTITLE10=Shaun Murphy - The Blues Don't Tell It All
TTITLE11=Georgina Peach - Money
TTITLE12=Zoe Schwarz Blue Commotion - Thank You
TTITLE13=Diane Blue and Ronnie Earl - Bringing Light
TTITLE14=Rosedale - Troublemaker
TTITLE15=Queen Bee Blues Band - Do What You Want
TTITLE16=Annika Chambers - Brand New Day
TTITLE17=Fernanda Rodrigues - It Can't Go On
TTITLE18=The Bloody Nerve - Find Ya Love
EXTD=
EXTT0=
EXTT1=
EXTT2=
EXTT3=
EXTT4=
EXTT5=
EXTT6=
EXTT7=
EXTT8=
EXTT9=
EXTT10=
EXTT11=
EXTT12=
EXTT13=
EXTT14=
EXTT15=
EXTT16=
EXTT17=
EXTT18=
PLAYORDER=
